# xmcd CD database file
#
# Track frame offsets:
#	182
#	29742
#	54267
#	81645
#	115110
#	148902
#	179432
#	209872
#	239390
#	261252
#
# Disc length: 3908 seconds
#
# Revision: 0
# Processed by: cddbd v1.5.1PL0 Copyright (c) Steve Scherf et al.
# Submitted via: CDex 1.51
#
DISCID=9f0f420a
DTITLE=Golem - Contry Vandrbal 2
DYEAR=1993
DGENRE=Country
TTITLE0=Aljaska
TTITLE1=Stromy
TTITLE2=Jsem na svete rad
TTITLE3=Slychym harmoniku hrat
TTITLE4=Nedelni rano
TTITLE5=Severni vitr
TTITLE6=Drz se zpatky, chlapce muj
TTITLE7=Slama v botach
TTITLE8=Jed dal
TTITLE9=Buraky
EXTD=YEAR: 1993
EXTT0=
EXTT1=
EXTT2=
EXTT3=
EXTT4=
EXTT5=
EXTT6=
EXTT7=
EXTT8=
EXTT9=
PLAYORDER=
